<svg xmlns="http://www.w3.org/2000/svg" viewBox="0 0 367.28 76.31"><defs><style>.cls-1{fill:#cf3b29;}.cls-2{fill:#f8bd0a;}.cls-3{fill:#fd8345;}.cls-4{fill:#f5f5f5;}</style></defs><g id="Layer_2" data-name="Layer 2"><g id="Layer_3" data-name="Layer 3"><path d="M143.56,54.14c0,6.36-4.12,10-11.26,10h-7.55v9.16h-3.3V44.45H132.3C139.44,44.45,143.56,48,143.56,54.14Zm-3.17.08c0-4.41-3-6.72-8.21-6.72h-7.43V61.11h7.43C137.38,61.11,140.39,58.76,140.39,54.22Z"/><path d="M165.68,65.94H150l-3.22,7.39h-3.51l13-28.88h3.42l12.92,28.88h-3.59Zm-1.32-3L157.8,48l-6.48,14.85Z"/><path d="M199.18,54.14c0,6.36-4.12,10-11.26,10h-7.55v9.16h-3.3V44.45h10.85C195.06,44.45,199.18,48,199.18,54.14Zm-3.17.08c0-4.41-3-6.72-8.21-6.72h-7.43V61.11h7.43C193,61.11,196,58.76,196,54.22Z"/><path d="M224.27,44.45v3H208v9.69h14.57v3H208V70.28h16.84v3H204.67V44.45Z"/><path d="M250.43,73.33l-6.07-9.24c-.57,0-1.19.08-1.85.08h-7.68v9.16h-3.3V44.45h11c7.22,0,11.38,3.54,11.38,9.69,0,4.75-2.35,8-6.52,9.33l6.81,9.86Zm-7.92-12.22c5.24,0,8.21-2.35,8.21-6.89s-3-6.72-8.21-6.72h-7.68V61.11Z"/><path class="cls-1" d="M264.66,44.45V57.53h17.41V44.45h3.31V73.33h-3.31V60.54H264.66V73.33h-3.3V44.45Z"/><path class="cls-1" d="M305.63,70.44c5.49,0,8.79-3.3,8.79-9v-17h3.3v17c0,7.56-4.54,12-12.09,12s-12.17-4.45-12.17-12v-17h3.3v17C296.76,67.14,300.15,70.44,305.63,70.44Z"/><path class="cls-1" d="M344.05,44.45v3H334.6V73.33h-3.3V47.5h-9.41v-3Z"/><path class="cls-1" d="M357.21,47.54c-3.71,0-6.15,1.49-6.15,4,0,7.51,16.26,3.59,16.22,14.07,0,4.79-4.25,7.88-10.44,7.88A16.49,16.49,0,0,1,345.78,69l1.49-2.85a14.49,14.49,0,0,0,9.61,4c4.17,0,6.77-1.69,6.77-4.49,0-7.72-16.22-3.63-16.22-14,0-4.54,4-7.43,10-7.43A17.19,17.19,0,0,1,366.58,47l-1.41,2.93A15.22,15.22,0,0,0,357.21,47.54Z"/><path class="cls-2" d="M34.72,30.33v44a2,2,0,0,1-2,2H1.26A1.25,1.25,0,0,1,0,75.05H0a1.29,1.29,0,0,1,.22-.71L31.07,29.2A2,2,0,0,1,34.72,30.33Z"/><path class="cls-1" d="M79.66,53.32v22a1,1,0,0,0,1,1H96.39a.63.63,0,0,0,.63-.63h0a.63.63,0,0,0-.11-.35L81.49,52.76A1,1,0,0,0,79.66,53.32Z"/><path class="cls-3" d="M74.55,47.65V74.31a2,2,0,0,1-2,2H41.83a2,2,0,0,1-2-2V2A2,2,0,0,1,43.48.88L73.81,45.26A4.27,4.27,0,0,1,74.55,47.65Z"/><rect class="cls-4" x="47.79" y="51.74" width="8.3" height="8.3" rx="2"/><rect class="cls-4" x="58.29" y="51.74" width="8.3" height="8.3" rx="2"/><rect class="cls-4" x="47.79" y="62.25" width="8.3" height="8.3" rx="2"/><rect class="cls-4" x="58.29" y="62.25" width="8.3" height="8.3" rx="2"/></g></g></svg>