<svg xmlns="http://www.w3.org/2000/svg" viewBox="0 0 390.35 172.99"><defs><style>.cls-1{fill:#cf3b29;}.cls-2{fill:#f8bd0a;}.cls-3{fill:#4f4f4f;}</style></defs><g id="Layer_2" data-name="Layer 2"><g id="Layer_3" data-name="Layer 3"><rect class="cls-1" x="16.26" y="117.54" width="30.71" height="30.71"/><polygon class="cls-2" points="118.2 0 0 172.99 118.2 172.99 118.2 0"/><path class="cls-3" d="M186.47,43c0,11.56-7.48,18.19-20.73,18.19H150v18h-3.24V25.32h19C179,25.32,186.47,31.79,186.47,43Zm-3.09.08c0-9.48-6.47-14.64-17.72-14.64H150V58.07h15.64C176.91,58.07,183.38,52.75,183.38,43.12Z"/><path class="cls-3" d="M228.77,63.85H197.25l-6.93,15.33h-3.55L211.2,25.32h3.47l24.65,53.86h-3.54Zm-1.47-3.24L212.89,29,198.64,60.61Z"/><path class="cls-3" d="M288.87,43c0,11.56-7.47,18.19-20.73,18.19H252.42v18h-3.23V25.32h18.95C281.4,25.32,288.87,31.79,288.87,43Zm-3.08.08c0-9.48-6.48-14.64-17.73-14.64H252.42V58.07h15.64C279.31,58.07,285.79,52.75,285.79,43.12Z"/><path class="cls-3" d="M335.1,25.32v3.16H303.58V50h28.05v3.24H303.58V76H336.1v3.16H300.35V25.32Z"/><path class="cls-3" d="M386.49,79.18,373.78,60.92a29,29,0,0,1-4.55.31H353.44v18H350.2V25.32h19c13.33,0,20.88,6.47,20.88,17.72,0,9.17-4.7,15.18-13.25,17.34l13.49,18.8ZM369.31,58.07c11.25,0,17.64-5.32,17.64-15,0-9.48-6.39-14.64-17.64-14.64H353.44V58.07Z"/><path class="cls-3" d="M150,117.78v25.28h36.45V117.78h3.23v53.87h-3.23V146.22H150v25.43h-3.24V117.78Z"/><path class="cls-3" d="M228.69,168.56c11.71,0,18.57-6.93,18.57-18.95V117.78h3.24v31.83c0,14-8,22.11-21.81,22.11s-21.81-8.09-21.81-22.11V117.78h3.24v31.83C210.12,161.63,217,168.56,228.69,168.56Z"/><path class="cls-3" d="M299,117.78v3.16H280.78v50.71h-3.24V120.94H259.35v-3.16Z"/><path class="cls-3" d="M323.31,121c-8.55,0-14.1,3.54-14.1,9.17,0,16.41,31.67,7.94,31.51,27.82,0,8.32-7.47,13.71-18.72,13.71a28.4,28.4,0,0,1-19.19-7.78l1.7-2.85a25.36,25.36,0,0,0,17.57,7.32c9.24,0,15.18-4,15.18-10.33.15-16.87-31.52-8.24-31.52-27.66,0-7.78,7.09-12.79,17.72-12.79A29.8,29.8,0,0,1,338.87,122L337.41,125A27.08,27.08,0,0,0,323.31,121Z"/></g></g></svg>